<?xml version="1.0" encoding="UTF-8"?><svg xmlns="http://www.w3.org/2000/svg" viewBox="0 0 448.64 152.42"><defs><style>.bi,.bj{fill:#24274e;}.bj{fill-rule:evenodd;}.bk{fill:#bf930d;}</style></defs><g id="a"/><g id="b"><g id="c"><g id="d"><g id="e"><g id="f"><path class="bj" d="M65.22,0c36.02,0,65.22,28.61,65.22,63.91s-29.2,63.91-65.22,63.91S0,99.21,0,63.91,29.2,0,65.22,0h0Zm.09,5.39C32.34,5.39,5.61,31.58,5.61,63.9s26.73,58.51,59.71,58.51,59.71-26.2,59.71-58.51S98.29,5.39,65.32,5.39h0Z"/><g><g><path class="bj" d="M104.94,91.56c-1.46,1.02-13.65,6.51-18.14,8.12,.11-.07,.16-.11,.06-.08-.55-8.09-1.29-9.06-7.21-10.52-5.17-1.51-13.14-2.2-17.76-1.23-2.36,.5-1.76,1.56-1.45,1.82,.82,.74,.73,.67,3.46,.37,4.91-.55,18.94,.23,19.67,4.33,1.06,5.97,1.38,11.68,1.56,17.55-14.3,.52-17.1,5.55-20.03,5.43-2.14-.09-5.49-4.79-19.92-5.43,.38-5.32,.74-8.85,.82-11.34l.43-6.08c.08-1.06,2.44-1.16,3.43-2.45,.6-.78,.34-1.58-1.14-1.38-.46,.06-1.02,.22-1.68,.53-.73,.34-2.38,1.64-2.72,2.09-.81,1.06-1.1,4.34-1.17,5.96,0,.16-13.34-5.66-18.04-7.7,1.93-1,2.97-1.23,27.7-12.62-.14,.07-.26,.12-.34,.16,.02,5.22-1.59,3.83-1.95,6.61-.59,4.65,3.21,1.32,2.16,8.15-.25,3.5-1.93,6.77-1.47,9.83l6.91,.07c.05-3.12-2.44-6.51-2.6-9.68-.91-7.31,2.53-3.94,2.2-8.29-.65-4.13-2.49-1.11-2.52-7.95h0c1.7-.79,3.51-1.62,5.43-2.51,4.49-2.12,4.53-2.12,6.51-1.07,7.47,3.42,32.24,14.5,37.82,17.3h0Z"/><path class="bj" d="M68.41,80.27c-.93-.43-2.02-.91-3.13-1.42-1.25,.57-1.61,.73-3.15,1.43-.26-2.63-.46-5.08-.62-7.53-1.07-16.66-1.5-22-2.11-29.86,2.24,.36,9.26,.3,11.61,.04-1,14.55-.32,3.6-2.6,37.33Z"/></g><g><path class="bj" d="M56.65,23.48c-.63,2.01-.5,6.05,.77,7.43l15.17,.02c.82-2.02,1.13-3.76,.83-6.26-.19-1.57-.82-4.57-2.21-5.11,.1,1.35,.32,2.51-.47,3.53-.57,.74-2.28,1.33-2.48-.05-.16-1.13,.58-2.31,.48-3.45-.11-1.22-.76-2.18-1.42-2.67-.43,2.84-2.44,2.68-2.74,2.21-.51-1.2,1.31-2.82,1.26-4.97-.04-1.55-1.16-3.81-2.13-4.46,.96,5.12-3.91,6.88-5.1,11.18-.3,1.09-.33,2.36,0,3.47,.25,.88,1.39,2.43,1.4,2.74,.01,.46-.73,1.41-2.15-.71-.8-1.21-.7-1.69-1.21-2.9Z"/><path class="bj" d="M56.06,30.25l18.34-.06c.39,2.9,0,5.74-1.6,7.25-1.9,1.78-4.36,1.51-7.47,1.51-3.1,0-5.49,.36-7.49-1.48-1.95-1.78-2.08-3.94-1.78-7.21Z"/></g><g><path class="bj" d="M37.97,77.26c3.97-.37,5.56-.39,8.67-.4,5.07-2.26,7.45-3.42,11.63-5.21-.71-9.05-1.78-20.76-2.03-23.96-.28-3.47,.1-4.74-1.77-7.47-5.32-7.77-10.44-4.87-19.93-4.46l3.44,41.5h0Z"/><path class="bj" d="M29.36,83.11c1.63,0,1.97,.07,3.78-.06,3.58-1.59,6.79-3.29,10.13-4.69-3.41,.35-6.74,.79-7.89,.38l-3.15-38.12-6.34,.51,3.46,41.99h0Z"/><path class="bj" d="M30.23,84.37c-.97,.02-1.94,.02-2.9-.04l-3.35-37.51-3.93,.17,3.23,40.57c2.41-1.09,5.67-2.6,6.95-3.19h0Z"/></g><g><path class="bj" d="M92.6,77.26c-3.97-.37-5.56-.39-8.67-.4-5.07-2.26-7.45-3.42-11.63-5.21,.71-9.05,1.78-20.76,2.03-23.96,.28-3.47-.1-4.74,1.77-7.47,5.32-7.77,10.44-4.87,19.93-4.46l-3.44,41.5h0Z"/><path class="bj" d="M101.2,83.11c-1.63,0-1.97,.07-3.78-.06-3.58-1.59-6.79-3.29-10.13-4.69,3.41,.35,6.74,.79,7.89,.38l3.15-38.12,6.34,.51-3.46,41.99h0Z"/><path class="bj" d="M100.33,84.37c.97,.02,1.94,.02,2.9-.04l3.35-37.51,3.93,.17-3.23,40.57c-2.41-1.09-5.67-2.6-6.95-3.19h0Z"/></g></g><polygon class="bi" points="169.38 50.98 169.38 45.84 181.23 45.84 181.23 39.37 169.38 39.37 169.38 34.65 184.75 34.65 184.75 27.76 161.05 27.76 161.05 57.87 185.18 57.87 185.18 50.98 169.38 50.98"/><path id="g" class="bi" d="M203.19,48.63c0,.88-.37,1.63-1.1,2.27-.74,.63-1.69,.95-2.86,.95-.73,0-1.46-.11-2.19-.34-.73-.22-1.34-.48-1.82-.77-.49-.29-.95-.62-1.38-1-.44-.38-.73-.64-.88-.77-.15-.14-.26-.25-.31-.34l-4.82,4.93,.48,.53c.32,.36,.84,.8,1.54,1.3,.69,.51,1.5,1.01,2.41,1.51,.91,.51,2.06,.94,3.47,1.29,1.4,.36,2.87,.54,4.38,.54,3.72,0,6.69-.95,8.94-2.85,2.24-1.91,3.36-4.25,3.36-7.04,0-1.43-.26-2.69-.79-3.78-.53-1.09-1.21-1.96-2.05-2.6-.83-.65-1.76-1.2-2.79-1.66-1.02-.46-2.03-.85-3.04-1.15-1-.3-1.92-.59-2.77-.86-.83-.27-1.51-.61-2.04-1-.53-.4-.8-.87-.8-1.42,0-.69,.31-1.29,.94-1.81,.63-.52,1.42-.77,2.36-.77s1.79,.22,2.67,.67c.88,.45,1.46,.8,1.74,1.06,.28,.26,.48,.47,.63,.65l4.84-4.96-.41-.42c-.23-.32-.64-.69-1.24-1.1-.6-.42-1.29-.83-2.08-1.25-.8-.42-1.81-.78-3.06-1.08-1.24-.3-2.56-.45-3.96-.45-3.39,0-6.19,.92-8.37,2.78-2.18,1.86-3.26,4.01-3.26,6.48,0,1.43,.26,2.69,.79,3.78,.53,1.09,1.21,1.96,2.05,2.6,.83,.65,1.76,1.2,2.77,1.66,1,.46,2.02,.84,3.04,1.14,1.02,.3,1.95,.59,2.79,.85,.83,.27,1.51,.6,2.04,1.01,.53,.4,.8,.88,.8,1.43h0Z"/><path id="h" class="bi" d="M223.8,42.81c0-2.46,.83-4.51,2.51-6.14,1.67-1.63,3.76-2.44,6.28-2.44,.93,0,1.84,.14,2.76,.41,.91,.27,1.64,.58,2.19,.92,.56,.34,1.09,.74,1.61,1.18,.51,.44,.84,.75,.98,.92,.15,.18,.26,.32,.34,.43l5.06-5.16-.5-.61c-.31-.42-.83-.92-1.55-1.51-.72-.59-1.57-1.18-2.53-1.76-.97-.59-2.19-1.1-3.67-1.51-1.48-.42-3.05-.63-4.7-.63-4.77,0-8.82,1.56-12.14,4.69-3.32,3.13-4.98,6.87-4.98,11.23s1.66,8.1,4.98,11.23c3.32,3.13,7.37,4.7,12.14,4.7,1.66,0,3.26-.22,4.79-.64,1.54-.43,2.77-.91,3.71-1.44,.94-.53,1.81-1.15,2.61-1.84,.8-.7,1.32-1.18,1.54-1.45,.22-.28,.39-.49,.5-.67l-4.82-5.16-.92,.96c-.61,.66-1.62,1.31-3,1.96-1.39,.65-2.86,.97-4.42,.97-2.52,0-4.61-.82-6.28-2.46s-2.51-3.69-2.51-6.16h0Z"/><path id="i" class="bi" d="M263.96,51.43c-1.56,0-2.9-.58-4.02-1.75-1.13-1.16-1.68-2.59-1.68-4.28V27.76h-8.34v17.64c0,3.78,1.33,6.95,3.99,9.5,2.66,2.56,6.01,3.83,10.05,3.83s7.4-1.28,10.05-3.83c2.66-2.55,3.99-5.72,3.99-9.5V27.76h-8.34v17.64c0,1.69-.56,3.12-1.68,4.28-1.12,1.17-2.46,1.75-4.02,1.75Z"/><polygon id="j" class="bi" points="293.12 50.98 293.12 45.84 304.97 45.84 304.97 39.37 293.12 39.37 293.12 34.65 308.49 34.65 308.49 27.76 284.79 27.76 284.79 57.87 308.92 57.87 308.92 50.98 293.12 50.98"/><polygon id="k" class="bi" points="336.14 57.87 336.14 50.56 322.53 50.56 322.53 27.76 314.19 27.76 314.19 57.87 336.14 57.87"/><path id="l" class="bi" d="M356.09,44.98h-5.7l2.85-8.82,2.85,8.82Zm2.19,6.45l2.21,6.44h9l-11.63-30.11h-9.22l-11.64,30.11h9l2.19-6.44h10.09Z"/><path id="m" class="bi" d="M382.19,27.76v30.11h11.86c4.67,0,8.54-1.45,11.62-4.34,3.08-2.9,4.62-6.47,4.62-10.72s-1.54-7.81-4.61-10.71c-3.07-2.9-6.95-4.34-11.63-4.34h-11.86Zm11.86,7.33c2.31,0,4.21,.72,5.68,2.16,1.47,1.44,2.21,3.3,2.21,5.56s-.78,4.06-2.34,5.53c-1.56,1.48-3.4,2.21-5.54,2.21h-3.52v-15.48h3.52Z"/><polygon id="n" class="bi" points="423.88 50.98 423.88 45.84 435.73 45.84 435.73 39.37 423.88 39.37 423.88 34.65 439.25 34.65 439.25 27.76 415.54 27.76 415.54 57.87 439.67 57.87 439.67 50.98 423.88 50.98"/><path id="o" class="bi" d="M161.05,78.51v30.11h8.34v-9.03h5.49c3.36,0,6.1-1,8.22-2.99,2.12-2,3.18-4.52,3.18-7.55s-1.06-5.56-3.17-7.56c-2.11-1.99-4.86-2.99-8.23-2.99h-13.83Zm13.38,7.33c.97,0,1.8,.32,2.48,.97,.69,.65,1.03,1.4,1.03,2.26s-.34,1.61-1.03,2.26c-.68,.65-1.51,.97-2.48,.97h-5.04v-6.45h5.04Z"/><path id="p" class="bi" d="M198.34,93.57c0-2.46,.82-4.51,2.47-6.14,1.65-1.63,3.68-2.44,6.11-2.44s4.46,.82,6.1,2.44c1.63,1.63,2.45,3.68,2.45,6.14s-.82,4.52-2.45,6.16c-1.64,1.63-3.67,2.46-6.1,2.46s-4.46-.82-6.11-2.46c-1.65-1.64-2.47-3.69-2.47-6.16Zm25.68,0c0-4.35-1.66-8.09-4.98-11.23-3.32-3.13-7.37-4.69-12.13-4.69s-8.81,1.56-12.14,4.69c-3.32,3.13-4.98,6.87-4.98,11.23s1.66,8.1,4.98,11.23c3.32,3.13,7.37,4.7,12.14,4.7s8.81-1.56,12.13-4.7c3.32-3.13,4.98-6.87,4.98-11.23h0Z"/><path id="q" class="bi" d="M242.01,99.39c0,.88-.37,1.63-1.1,2.27-.74,.63-1.69,.95-2.86,.95-.73,0-1.46-.11-2.19-.34-.73-.22-1.34-.48-1.82-.77-.49-.29-.95-.62-1.38-1-.44-.38-.73-.64-.88-.77-.15-.14-.26-.25-.31-.34l-4.82,4.93,.48,.53c.32,.36,.84,.8,1.54,1.3,.69,.51,1.5,1.01,2.41,1.51,.91,.51,2.06,.94,3.47,1.29,1.4,.36,2.87,.54,4.38,.54,3.72,0,6.69-.95,8.94-2.85,2.24-1.91,3.36-4.25,3.36-7.04,0-1.43-.26-2.69-.79-3.78-.53-1.09-1.21-1.96-2.05-2.6-.83-.65-1.76-1.2-2.79-1.66-1.02-.46-2.03-.85-3.04-1.15-1-.3-1.92-.59-2.77-.86-.83-.27-1.51-.61-2.04-1-.53-.4-.8-.87-.8-1.42,0-.69,.31-1.29,.94-1.81,.63-.52,1.42-.77,2.36-.77s1.79,.22,2.67,.67c.88,.45,1.46,.8,1.74,1.06,.28,.26,.48,.47,.63,.65l4.84-4.96-.41-.42c-.23-.32-.64-.69-1.24-1.1-.6-.42-1.29-.83-2.08-1.25-.8-.42-1.81-.78-3.06-1.08-1.24-.3-2.56-.45-3.96-.45-3.39,0-6.19,.92-8.37,2.78-2.18,1.86-3.26,4.01-3.26,6.48,0,1.43,.26,2.69,.79,3.78,.53,1.09,1.21,1.96,2.05,2.6,.83,.65,1.76,1.2,2.77,1.66,1,.46,2.02,.84,3.04,1.14,1.02,.3,1.95,.59,2.79,.85,.83,.27,1.51,.6,2.04,1.01,.53,.4,.8,.88,.8,1.43h0Z"/><polygon id="r" class="bi" points="253.41 78.51 253.41 85.84 261.96 85.84 261.96 108.63 270.3 108.63 270.3 85.84 278.88 85.84 278.88 78.51 253.41 78.51"/><path id="s" class="bi" d="M298.61,109.49c1.65,0,3.23-.22,4.78-.64,1.54-.43,2.81-.91,3.8-1.44,.99-.53,1.91-1.15,2.77-1.84,.86-.7,1.42-1.18,1.69-1.45,.27-.28,.47-.49,.58-.67v-11.61h-13.17v5.17h4.82v3.23l-.51,.47c-.36,.34-.97,.68-1.84,1-.88,.32-1.84,.47-2.9,.47-2.52,0-4.61-.82-6.28-2.46-1.68-1.64-2.51-3.69-2.51-6.16s.83-4.51,2.51-6.14c1.67-1.63,3.76-2.44,6.28-2.44,.93,0,1.84,.14,2.76,.41,.91,.27,1.64,.58,2.19,.92,.56,.34,1.09,.74,1.61,1.18,.51,.44,.84,.75,.98,.92,.15,.18,.26,.32,.34,.43l5.06-5.16-.5-.61c-.31-.42-.83-.92-1.55-1.51-.72-.59-1.57-1.18-2.53-1.76-.97-.59-2.19-1.1-3.67-1.51-1.48-.42-3.05-.63-4.7-.63-4.77,0-8.82,1.56-12.14,4.69-3.32,3.13-4.98,6.87-4.98,11.23s1.66,8.1,4.98,11.23c3.32,3.13,7.37,4.7,12.14,4.7h0Z"/><path id="t" class="bi" d="M318.77,108.63h8.34v-9.47h4.4l5.27,9.47h8.77l-6.36-10.96,.58-.32c.34-.17,.77-.48,1.28-.94,.52-.45,1.03-1,1.54-1.66,.52-.65,.96-1.5,1.32-2.54,.36-1.04,.54-2.16,.54-3.37,0-2.92-1.05-5.38-3.16-7.36-2.11-1.98-4.78-2.97-8.02-2.97h-14.49v30.11Zm17.34-19.79c0,.86-.31,1.58-.92,2.15-.61,.57-1.41,.86-2.38,.86h-5.7v-6.01h5.7c.97,0,1.77,.29,2.38,.85,.61,.57,.92,1.28,.92,2.14Z"/><path id="u" class="bi" d="M365.94,95.73h-5.7l2.85-8.82,2.85,8.82Zm2.19,6.45l2.21,6.44h9l-11.63-30.11h-9.22l-11.64,30.11h9l2.19-6.44h10.09Z"/><path id="v" class="bi" d="M382.82,78.51v30.11h11.86c4.67,0,8.54-1.45,11.62-4.34,3.08-2.9,4.62-6.47,4.62-10.72s-1.54-7.81-4.61-10.71c-3.07-2.9-6.95-4.34-11.63-4.34h-11.86Zm11.86,7.33c2.31,0,4.21,.72,5.68,2.16,1.47,1.44,2.21,3.3,2.21,5.56s-.78,4.06-2.34,5.53c-1.56,1.48-3.4,2.21-5.54,2.21h-3.52v-15.48h3.52Z"/><path id="w" class="bi" d="M422.97,93.57c0-2.46,.82-4.51,2.47-6.14,1.65-1.63,3.68-2.44,6.11-2.44s4.46,.82,6.1,2.44c1.63,1.63,2.45,3.68,2.45,6.14s-.82,4.52-2.45,6.16c-1.64,1.63-3.67,2.46-6.1,2.46s-4.46-.82-6.11-2.46c-1.65-1.64-2.47-3.69-2.47-6.16Zm25.68,0c0-4.35-1.66-8.09-4.98-11.23-3.32-3.13-7.37-4.69-12.13-4.69s-8.81,1.56-12.14,4.69c-3.32,3.13-4.98,6.87-4.98,11.23s1.66,8.1,4.98,11.23c3.32,3.13,7.37,4.7,12.14,4.7s8.81-1.56,12.13-4.7c3.32-3.13,4.98-6.87,4.98-11.23Z"/></g></g><path class="bk" d="M6.78,149.74c-.57,0-1.06-.21-1.47-.64-.41-.43-.62-.95-.62-1.57v-6.48H1.63v6.48c0,1.39,.49,2.55,1.46,3.49,.98,.94,2.21,1.41,3.69,1.41s2.72-.47,3.69-1.41c.98-.94,1.46-2.1,1.46-3.49v-6.48h-3.06v6.48c0,.62-.2,1.15-.62,1.57-.41,.43-.9,.64-1.47,.64h0Z"/><polygon id="x" class="bk" points="21.92 141.05 21.92 147.21 17.09 141.05 14.43 141.05 14.43 152.11 17.49 152.11 17.49 145.94 22.34 152.11 24.98 152.11 24.98 141.05 21.92 141.05"/><polygon id="y" class="bk" points="27.56 152.11 30.63 152.11 30.63 141.05 27.56 141.05 27.56 152.11"/><polygon id="a`" class="bk" points="36.1 152.11 39.49 152.11 43.52 141.05 40.21 141.05 37.8 148.63 35.37 141.05 32.07 141.05 36.1 152.11"/><polygon id="aa" class="bk" points="48.03 149.58 48.03 147.69 52.38 147.69 52.38 145.31 48.03 145.31 48.03 143.58 53.67 143.58 53.67 141.05 44.97 141.05 44.97 152.11 53.83 152.11 53.83 149.58 48.03 149.58"/><path id="ab" class="bk" d="M55.76,152.11h3.06v-3.48h1.61l1.93,3.48h3.22l-2.34-4.02,.21-.12c.13-.06,.28-.18,.47-.34,.19-.17,.38-.37,.57-.61,.19-.24,.35-.55,.49-.93,.13-.38,.2-.79,.2-1.24,0-1.07-.39-1.97-1.16-2.7-.77-.73-1.76-1.09-2.95-1.09h-5.32v11.06h0Zm6.37-7.27c0,.32-.11,.58-.34,.79-.23,.21-.52,.32-.88,.32h-2.09v-2.21h2.09c.36,0,.65,.11,.88,.31,.23,.21,.34,.47,.34,.79h0Z"/><path id="ac" class="bk" d="M72.04,148.71c0,.32-.14,.6-.41,.83-.27,.23-.62,.35-1.05,.35-.27,0-.54-.04-.8-.12-.27-.08-.49-.18-.67-.28-.18-.11-.35-.23-.51-.37-.16-.14-.27-.23-.32-.28-.06-.05-.09-.09-.12-.12l-1.77,1.81,.17,.19c.12,.13,.31,.29,.57,.48,.26,.19,.55,.37,.88,.56,.33,.19,.76,.34,1.28,.47,.52,.13,1.05,.2,1.61,.2,1.36,0,2.46-.35,3.28-1.05,.82-.7,1.23-1.56,1.23-2.58,0-.52-.1-.99-.29-1.39-.19-.4-.44-.72-.75-.96-.31-.24-.65-.44-1.02-.61-.37-.17-.75-.31-1.12-.42-.37-.11-.71-.22-1.02-.32-.31-.1-.56-.22-.75-.37-.2-.15-.29-.32-.29-.52,0-.25,.12-.47,.35-.66,.23-.19,.52-.28,.86-.28s.66,.08,.98,.24c.32,.17,.53,.29,.64,.39,.1,.09,.18,.17,.23,.24l1.78-1.82-.15-.15c-.08-.12-.23-.25-.46-.41-.22-.15-.48-.31-.77-.46-.29-.16-.67-.29-1.12-.4-.46-.11-.94-.17-1.46-.17-1.25,0-2.27,.34-3.07,1.02-.8,.68-1.2,1.47-1.2,2.38,0,.52,.1,.99,.29,1.39,.19,.4,.44,.72,.75,.96,.31,.24,.64,.44,1.02,.61,.37,.17,.74,.31,1.12,.42,.37,.11,.71,.22,1.02,.31,.31,.1,.56,.22,.75,.37,.2,.15,.29,.32,.29,.52h0Z"/><polygon id="ad" class="bk" points="77.19 152.11 80.25 152.11 80.25 141.05 77.19 141.05 77.19 152.11"/><path id="ae" class="bk" d="M82.83,141.05v11.06h4.35c1.71,0,3.14-.53,4.27-1.6,1.13-1.07,1.69-2.38,1.69-3.94s-.56-2.87-1.69-3.93c-1.13-1.06-2.55-1.6-4.27-1.6h-4.35Zm4.35,2.69c.85,0,1.54,.27,2.08,.79s.81,1.21,.81,2.04-.29,1.49-.86,2.03-1.25,.81-2.04,.81h-1.29v-5.68h1.29Z"/><path id="af" class="bk" d="M100.8,147.37h-2.09l1.05-3.24,1.04,3.24h0Zm.8,2.37l.81,2.37h3.3l-4.27-11.06h-3.38l-4.27,11.06h3.3l.8-2.37h3.71Z"/><path id="ag" class="bk" d="M107,141.05v11.06h4.35c1.71,0,3.14-.53,4.27-1.6,1.13-1.07,1.69-2.38,1.69-3.94s-.56-2.87-1.69-3.93c-1.13-1.06-2.55-1.6-4.27-1.6h-4.35Zm4.35,2.69c.85,0,1.54,.27,2.08,.79s.81,1.21,.81,2.04-.29,1.49-.86,2.03-1.25,.81-2.04,.81h-1.29v-5.68h1.29Z"/><polygon id="ah" class="bk" points="130.12 141.05 130.12 147.21 125.29 141.05 122.63 141.05 122.63 152.11 125.69 152.11 125.69 145.94 130.54 152.11 133.18 152.11 133.18 141.05 130.12 141.05"/><path id="ai" class="bk" d="M141.48,147.37h-2.09l1.05-3.24,1.04,3.24Zm.8,2.37l.81,2.37h3.3l-4.27-11.06h-3.38l-4.27,11.06h3.3l.8-2.37h3.71Z"/><path id="aj" class="bk" d="M150.1,146.57c0-.9,.31-1.66,.92-2.26,.61-.6,1.38-.9,2.3-.9,.34,0,.68,.05,1.01,.15,.33,.1,.6,.21,.81,.34,.2,.13,.4,.27,.59,.43,.19,.16,.31,.28,.36,.34,.05,.07,.09,.12,.13,.16l1.86-1.9-.18-.22c-.12-.16-.31-.34-.57-.56-.27-.22-.57-.43-.93-.65-.35-.22-.8-.4-1.35-.56-.55-.16-1.12-.23-1.72-.23-1.75,0-3.24,.57-4.46,1.72-1.22,1.15-1.83,2.52-1.83,4.12s.61,2.97,1.83,4.12c1.22,1.15,2.71,1.72,4.46,1.72,.61,0,1.2-.08,1.76-.23,.56-.16,1.02-.33,1.36-.53,.34-.19,.66-.42,.96-.67,.3-.26,.49-.43,.57-.53,.08-.1,.14-.18,.19-.24l-1.77-1.9-.34,.35c-.23,.24-.59,.48-1.1,.72-.51,.24-1.05,.36-1.62,.36-.92,0-1.69-.3-2.3-.9s-.92-1.36-.92-2.26h0Z"/><polygon id="ak" class="bk" points="159.77 152.11 162.83 152.11 162.83 141.05 159.77 141.05 159.77 152.11"/><path id="al" class="bk" d="M167.9,146.57c0-.9,.3-1.66,.91-2.26,.6-.6,1.35-.9,2.24-.9s1.64,.3,2.24,.9c.6,.6,.9,1.35,.9,2.26s-.3,1.66-.9,2.26c-.6,.6-1.35,.9-2.24,.9s-1.64-.3-2.24-.9c-.6-.6-.91-1.36-.91-2.26Zm9.43,0c0-1.6-.61-2.97-1.83-4.12-1.22-1.15-2.71-1.72-4.45-1.72s-3.24,.57-4.46,1.72c-1.22,1.15-1.83,2.52-1.83,4.12s.61,2.97,1.83,4.12c1.22,1.15,2.7,1.72,4.46,1.72s3.23-.57,4.45-1.72c1.22-1.15,1.83-2.52,1.83-4.12Z"/><polygon id="am" class="bk" points="186.76 141.05 186.76 147.21 181.93 141.05 179.27 141.05 179.27 152.11 182.33 152.11 182.33 145.94 187.18 152.11 189.82 152.11 189.82 141.05 186.76 141.05"/><path id="an" class="bk" d="M198.12,147.37h-2.09l1.05-3.24,1.04,3.24Zm.8,2.37l.81,2.37h3.3l-4.27-11.06h-3.38l-4.27,11.06h3.3l.8-2.37h3.71Z"/><polygon id="ao" class="bk" points="212.38 152.11 212.38 149.42 207.38 149.42 207.38 141.05 204.32 141.05 204.32 152.11 212.38 152.11"/><path id="ap" class="bk" d="M217.37,141.05v11.06h4.35c1.71,0,3.14-.53,4.27-1.6,1.13-1.07,1.69-2.38,1.69-3.94s-.56-2.87-1.69-3.93c-1.13-1.06-2.55-1.6-4.27-1.6h-4.35Zm4.35,2.69c.85,0,1.54,.27,2.08,.79,.54,.53,.81,1.21,.81,2.04s-.29,1.49-.86,2.03-1.25,.81-2.04,.81h-1.29v-5.68h1.29Z"/><polygon id="aq" class="bk" points="232.68 149.58 232.68 147.69 237.03 147.69 237.03 145.31 232.68 145.31 232.68 143.58 238.32 143.58 238.32 141.05 229.62 141.05 229.62 152.11 238.48 152.11 238.48 149.58 232.68 149.58"/><polygon id="ar" class="bk" points="251.86 152.11 251.86 149.42 246.86 149.42 246.86 141.05 243.8 141.05 243.8 152.11 251.86 152.11"/><path id="as" class="bk" d="M259.19,147.37h-2.09l1.05-3.24,1.04,3.24Zm.8,2.37l.81,2.37h3.3l-4.27-11.06h-3.38l-4.27,11.06h3.3l.8-2.37h3.71Z"/><path id="at" class="bk" d="M274.49,147.37h-2.09l1.05-3.24,1.04,3.24Zm.8,2.37l.81,2.37h3.3l-4.27-11.06h-3.38l-4.27,11.06h3.3l.8-2.37h3.71Z"/><polygon id="au" class="bk" points="286.9 149.42 290.04 145.55 290.04 152.11 293.11 152.11 293.11 141.05 290.37 141.05 286.9 145.4 283.43 141.05 280.69 141.05 280.69 152.11 283.76 152.11 283.76 145.55 286.9 149.42"/><path id="av" class="bk" d="M301.4,147.37h-2.09l1.05-3.24,1.04,3.24Zm.8,2.37l.81,2.37h3.3l-4.27-11.06h-3.38l-4.27,11.06h3.3l.8-2.37h3.71Z"/><polygon id="aw" class="bk" points="312.03 143.74 307.03 149.42 307.03 152.11 316.22 152.11 316.22 149.42 311.06 149.42 316.06 143.74 316.06 141.05 307.28 141.05 307.28 143.74 312.03 143.74"/><path id="ax" class="bk" d="M320.73,146.57c0-.9,.3-1.66,.91-2.26,.6-.6,1.35-.9,2.24-.9s1.64,.3,2.24,.9c.6,.6,.9,1.35,.9,2.26s-.3,1.66-.9,2.26c-.6,.6-1.35,.9-2.24,.9s-1.64-.3-2.24-.9c-.6-.6-.91-1.36-.91-2.26Zm9.43,0c0-1.6-.61-2.97-1.83-4.12-1.22-1.15-2.71-1.72-4.45-1.72s-3.24,.57-4.46,1.72c-1.22,1.15-1.83,2.52-1.83,4.12s.61,2.97,1.83,4.12c1.22,1.15,2.7,1.72,4.46,1.72s3.23-.57,4.45-1.72c1.22-1.15,1.83-2.52,1.83-4.12Z"/><polygon id="ay" class="bk" points="339.58 141.05 339.58 147.21 334.75 141.05 332.09 141.05 332.09 152.11 335.15 152.11 335.15 145.94 340 152.11 342.64 152.11 342.64 141.05 339.58 141.05"/><polygon id="b`" class="bk" points="345.22 152.11 348.29 152.11 348.29 141.05 345.22 141.05 345.22 152.11"/><path id="ba" class="bk" d="M356.58,147.37h-2.09l1.05-3.24,1.04,3.24Zm.8,2.37l.81,2.37h3.3l-4.27-11.06h-3.38l-4.27,11.06h3.3l.8-2.37h3.71Z"/><path id="bb" class="bk" d="M366.17,141.05v11.06h3.06v-3.32h2.01c1.23,0,2.24-.37,3.02-1.1,.78-.73,1.17-1.66,1.17-2.77s-.39-2.04-1.17-2.77c-.78-.73-1.78-1.1-3.02-1.1h-5.08Zm4.91,2.69c.35,0,.66,.12,.91,.36,.25,.24,.38,.51,.38,.83s-.13,.59-.38,.83c-.25,.24-.56,.36-.91,.36h-1.85v-2.37h1.85Z"/><polygon id="bc" class="bk" points="380.43 149.58 380.43 147.69 384.78 147.69 384.78 145.31 380.43 145.31 380.43 143.58 386.07 143.58 386.07 141.05 377.36 141.05 377.36 152.11 386.23 152.11 386.23 149.58 380.43 149.58"/><path id="bd" class="bk" d="M388.16,152.11h3.06v-3.48h1.61l1.93,3.48h3.22l-2.34-4.02,.21-.12c.13-.06,.28-.18,.47-.34,.19-.17,.38-.37,.57-.61,.19-.24,.35-.55,.49-.93,.13-.38,.2-.79,.2-1.24,0-1.07-.39-1.97-1.16-2.7-.77-.73-1.76-1.09-2.95-1.09h-5.32v11.06h0Zm6.37-7.27c0,.32-.11,.58-.34,.79-.23,.21-.52,.32-.88,.32h-2.09v-2.21h2.09c.36,0,.65,.11,.88,.31,.23,.21,.34,.47,.34,.79h0Z"/><path id="be" class="bk" d="M404.84,149.74c-.57,0-1.06-.21-1.47-.64-.41-.43-.62-.95-.62-1.57v-6.48h-3.06v6.48c0,1.39,.49,2.55,1.46,3.49,.98,.94,2.21,1.41,3.69,1.41s2.72-.47,3.69-1.41c.98-.94,1.46-2.1,1.46-3.49v-6.48h-3.06v6.48c0,.62-.2,1.15-.62,1.57-.41,.43-.9,.64-1.47,.64Z"/><path id="bf" class="bk" d="M418.21,147.37h-2.09l1.05-3.24,1.04,3.24Zm.8,2.37l.81,2.37h3.3l-4.27-11.06h-3.38l-4.27,11.06h3.3l.8-2.37h3.71Z"/><polygon id="bg" class="bk" points="431.9 141.05 431.9 147.21 427.07 141.05 424.41 141.05 424.41 152.11 427.47 152.11 427.47 145.94 432.32 152.11 434.96 152.11 434.96 141.05 431.9 141.05"/><path id="bh" class="bk" d="M443.27,147.37h-2.09l1.05-3.24,1.04,3.24Zm.8,2.37l.81,2.37h3.3l-4.27-11.06h-3.38l-4.27,11.06h3.3l.8-2.37h3.71Z"/></g></g></g></svg>